<svg width="24" height="25" viewBox="0 0 24 25" fill="none" xmlns="http://www.w3.org/2000/svg">
<path d="M5.6 23.7L5.0336 24.2664C5.10791 24.3409 5.19619 24.4 5.29339 24.4403C5.39058 24.4807 5.49477 24.5014 5.6 24.5014C5.70523 24.5014 5.80942 24.4807 5.90661 24.4403C6.00381 24.4 6.09209 24.3409 6.1664 24.2664L5.6 23.7ZM15.2 14.1V13.3H14.4V14.1H15.2ZM15.2 23.7H14.4V24.5H15.2V23.7ZM6.1664 24.2664L10.9664 19.4664L9.8336 18.3336L5.0336 23.1336L6.1664 24.2664ZM6.1664 23.1336L1.3664 18.3336L0.2336 19.4664L5.0336 24.2664L6.1664 23.1336ZM4.8 0.5V23.7H6.4V0.5H4.8ZM15.2 14.9H19.2V13.3H15.2V14.9ZM19.2 18.1H15.2V19.7H19.2V18.1ZM16 18.9V14.1H14.4V18.9H16ZM20.8 16.5C20.8 16.9243 20.6314 17.3313 20.3314 17.6314C20.0313 17.9314 19.6243 18.1 19.2 18.1V19.7C20.0487 19.7 20.8626 19.3629 21.4627 18.7627C22.0629 18.1626 22.4 17.3487 22.4 16.5H20.8ZM19.2 14.9C19.6243 14.9 20.0313 15.0686 20.3314 15.3686C20.6314 15.6687 20.8 16.0757 20.8 16.5H22.4C22.4 15.6513 22.0629 14.8374 21.4627 14.2373C20.8626 13.6371 20.0487 13.3 19.2 13.3V14.9ZM19.2 22.9H15.2V24.5H19.2V22.9ZM16 23.7V18.9H14.4V23.7H16ZM20.8 21.3C20.8 21.7243 20.6314 22.1313 20.3314 22.4314C20.0313 22.7314 19.6243 22.9 19.2 22.9V24.5C20.0487 24.5 20.8626 24.1629 21.4627 23.5627C22.0629 22.9626 22.4 22.1487 22.4 21.3H20.8ZM19.2 19.7C19.6243 19.7 20.0313 19.8686 20.3314 20.1686C20.6314 20.4687 20.8 20.8757 20.8 21.3H22.4C22.4 20.4513 22.0629 19.6374 21.4627 19.0373C20.8626 18.4371 20.0487 18.1 19.2 18.1V19.7ZM16 11.7V4.5H14.4V11.7H16ZM20.8 4.5V11.7H22.4V4.5H20.8ZM18.4 2.1C19.0365 2.1 19.647 2.35286 20.0971 2.80294C20.5471 3.25303 20.8 3.86348 20.8 4.5H22.4C22.4 3.43913 21.9786 2.42172 21.2284 1.67157C20.4783 0.921427 19.4609 0.5 18.4 0.5V2.1ZM16 4.5C16 3.86348 16.2529 3.25303 16.7029 2.80294C17.153 2.35286 17.7635 2.1 18.4 2.1V0.5C17.3391 0.5 16.3217 0.921427 15.5716 1.67157C14.8214 2.42172 14.4 3.43913 14.4 4.5H16ZM15.2 8.5H21.6V6.9H15.2V8.5Z" fill="#272727"/>
</svg>
